<svg width="512" height="512" viewBox="0 0 512 512" fill="none" xmlns="http://www.w3.org/2000/svg">
  <rect width="512" height="512" rx="64" fill="#6366F1"/>
  <path d="M256 128C179.2 128 128 179.2 128 256C128 332.8 179.2 384 256 384C332.8 384 384 332.8 384 256C384 179.2 332.8 128 256 128ZM256 352C197.6 352 160 314.4 160 256C160 197.6 197.6 160 256 160C314.4 160 352 197.6 352 256C352 314.4 314.4 352 256 352Z" fill="white"/>
  <path d="M256 192C228.8 192 208 212.8 208 240C208 267.2 228.8 288 256 288C283.2 288 304 267.2 304 240C304 212.8 283.2 192 256 192ZM256 272C238.4 272 224 257.6 224 240C224 222.4 238.4 208 256 208C273.6 208 288 222.4 288 240C288 257.6 273.6 272 256 272Z" fill="white"/>
</svg> 